<?xml version="1.0" encoding="utf-8"?>
<svg viewBox="0 0 300 300" xmlns="http://www.w3.org/2000/svg">
  <defs>
    <clipPath id="SvgjsClipPath1057">
      <path d=" M -1.4429631110935959 -0.05356511110055051 h 1.0479631110935959 v 1.263720222201101 h -1.0479631110935959 Z"/>
    </clipPath>
    <clipPath id="SvgjsClipPath10558d6024c5-3952-4ff1-9051-77f0e38fb026">
      <path d=" M -1.4429631110935959 -0.05356511110055051 L -0.395 -0.05356511110055051 L -0.395 1.2101551111005504 L -1.4429631110935959 1.2101551111005504 Z"/>
    </clipPath>
  </defs>
  <g transform="matrix(492.441864, 0, 0, 474.11203, 3532.111966, 935.589758)" style="">
    <g clip-path="url(#SvgjsClipPath1057)" transform="matrix(0.493877, 0, 0, 0.493877, -6.412684, -1.94796)" style="">
      <g clip-path="url(#SvgjsClipPath10558d6024c5-3952-4ff1-9051-77f0e38fb026)">
        <path d=" M -0.4369185244437439 0.47386855822396745 L -0.918981555546798 -0.011369184656811311 L -1.401044586649852 0.47386855822396745 L -0.918981555546798 0.9591063011047464 Z M -0.918981555546798 -0.05356511110055051 L -1.4429631110935959 0.47386855822396745 L -0.918981555546798 1.0013022275484853 L -0.395 0.47386855822396745 Z" fill="#000000" transform="matrix(1,0,0,1,0,0)" fill-rule="evenodd"/>
      </g>
      <g clip-path="url(#SvgjsClipPath10558d6024c5-3952-4ff1-9051-77f0e38fb026)">
        <path d=" M -0.4369185244437439 0.578295 L -0.918981555546798 0.09305725711922114 L -1.401044586649852 0.578295 L -0.918981555546798 1.063532742880779 Z M -0.918981555546798 0.05086133067548193 L -1.4429631110935959 0.578295 L -0.918981555546798 1.105728669324518 L -0.395 0.578295 Z" fill="#000000" transform="matrix(1,0,0,1,0,0)" fill-rule="evenodd"/>
      </g>
      <g clip-path="url(#SvgjsClipPath10558d6024c5-3952-4ff1-9051-77f0e38fb026)">
        <path d=" M -0.4369185244437439 0.6827214417760324 L -0.918981555546798 0.19748369889525358 L -1.401044586649852 0.6827214417760324 L -0.918981555546798 1.1679591846568114 Z M -0.918981555546798 0.15528777245151437 L -1.4429631110935959 0.6827214417760324 L -0.918981555546798 1.2101551111005504 L -0.395 0.6827214417760324 Z" fill="#000000" transform="matrix(1,0,0,1,0,0)" fill-rule="evenodd"/>
      </g>
    </g>
  </g>
</svg>